<?xml version="1.0" encoding="utf-8"?>
<!-- Generator: Adobe Illustrator 24.0.1, SVG Export Plug-In . SVG Version: 6.00 Build 0)  -->
<svg version="1.1" id="Ebene_1" xmlns="http://www.w3.org/2000/svg" xmlns:xlink="http://www.w3.org/1999/xlink" x="0px" y="0px"
	 viewBox="0 0 100 100" style="enable-background:new 0 0 100 100;" xml:space="preserve">
<style type="text/css">
	.st0{fill:url(#SVGID_1_);}
	.st1{fill:#019EED;}
	.st2{opacity:0.46;fill:#64DFE0;}
	.st3{fill:none;}
	.st4{fill:#64DFE0;}
	.st5{fill:#FFFFFF;}
</style>
<radialGradient id="SVGID_1_" cx="49.7742" cy="53.2362" r="44.2307" gradientTransform="matrix(6.123234e-17 -1 1.3 7.960204e-17 -19.4329 103.0104)" gradientUnits="userSpaceOnUse">
	<stop  offset="0" style="stop-color:#1BA9F1"/>
	<stop  offset="0.3452" style="stop-color:#1EABF2"/>
	<stop  offset="0.6102" style="stop-color:#28AFF4"/>
	<stop  offset="0.8478" style="stop-color:#38B8F8"/>
	<stop  offset="1" style="stop-color:#47BFFB"/>
</radialGradient>
<path class="st0" d="M82.6,92.7H16.9c-8.7,0-15.7-7-15.7-15.7V41.3c0-1.9,1.1-3.7,2.8-4.6L44.9,15c3.1-1.6,6.7-1.6,9.8,0l40.8,21.7
	c1.7,0.9,2.8,2.7,2.8,4.6V77C98.3,85.7,91.3,92.7,82.6,92.7z"/>
<path class="st1" d="M54.2,69.1c-2.8,1.5-6.1,1.5-8.9,0L5.4,48.2c-2.5-1.3-4.1-3.9-4.1-6.8v0c0-2,1.1-3.9,2.9-4.9L44.8,15
	c3.1-1.7,6.9-1.7,10,0l40.6,21.5c1.8,1,2.9,2.8,2.9,4.9v0.1c0,2.7-1.5,5.2-3.9,6.5L54.2,69.1z"/>
<path class="st2" d="M83.7,48.2H15.6V14.5c0-4.1,3.3-7.4,7.4-7.4h53.4c4.1,0,7.4,3.3,7.4,7.4V48.2z"/>
<g>
	<path class="st3" d="M55,15.1l28.8,15.3V14.6c0-4.1-3.3-7.4-7.4-7.4H23c-4.1,0-7.4,3.3-7.4,7.4v16L45,15.1
		C48.1,13.4,51.8,13.4,55,15.1z"/>
	<path class="st3" d="M54.4,69.1c-2.8,1.5-6.1,1.5-8.9,0L15.7,53.5v17.6h68.1V53.7L54.4,69.1z"/>
	<path class="st4" d="M54.4,69.1l29.3-15.4V30.3L54.8,15c-3.1-1.7-6.9-1.7-10.1,0L15.6,30.4l-0.1,23.3l29.9,15.4
		C48.2,70.5,51.6,70.5,54.4,69.1z"/>
</g>
<path class="st5" d="M46,25.4H27.1c-1,0-1.8-0.8-1.8-1.8v-4.1c0-1,0.8-1.8,1.8-1.8H46c1,0,1.8,0.8,1.8,1.8v4.1
	C47.8,24.6,47,25.4,46,25.4z"/>
<path class="st5" d="M72.4,38.2H27.1c-1,0-1.8-0.8-1.8-1.8v-4.1c0-1,0.8-1.8,1.8-1.8h45.3c1,0,1.8,0.8,1.8,1.8v4.1
	C74.2,37.4,73.4,38.2,72.4,38.2z"/>
<path class="st5" d="M62.9,51.1H27.1c-1,0-1.8-0.8-1.8-1.8v-4.1c0-1,0.8-1.8,1.8-1.8h35.8c1,0,1.8,0.8,1.8,1.8v4.1
	C64.7,50.3,63.9,51.1,62.9,51.1z"/>
<g>
	<path class="st3" d="M25.3,58.8v-0.3c0-1,0.8-1.8,1.8-1.8h29.6c1,0,1.8,0.8,1.8,1.8v4.1c0,1-0.8,1.8-1.8,1.8H36"/>
	<path class="st5" d="M58.5,62.6v-4.1c0-1-0.8-1.8-1.8-1.8H27.1c-1,0-1.8,0.8-1.8,1.8v0.3l10.9,5.6h20.4
		C57.7,64.3,58.5,63.5,58.5,62.6z"/>
</g>
</svg>
